<svg xmlns="http://www.w3.org/2000/svg" width="256" height="256" viewBox="0 0 100 100"><rect width="100" height="100" rx="20" fill="#d0021b"></rect><path fill="#f8e71c" d="M27.17 66.70L27.17 66.70L27.09 70.21Q27.09 74.04 28.11 75.49L28.11 75.49Q29.16 76.93 31.13 76.93Q33.11 76.93 34.61 75.86Q36.11 74.79 37.23 72.85Q38.34 70.92 39.20 68.81Q40.06 66.70 40.72 64.00L40.72 64.00Q41.66 60.37 42.21 57.42Q42.75 54.47 42.83 54.12L42.83 54.12L47.01 31.97Q47.36 29.75 55.96 29.75L55.96 29.75Q54.79 38.69 53.34 43.81L53.34 43.81Q53.34 43.96 51.89 50.84L51.89 50.84Q49.16 64.08 47.64 68.14L47.64 68.14Q48.77 71.27 52.09 73.38Q55.41 75.49 59.84 75.49Q64.28 75.49 66.84 72.44Q69.39 69.39 69.39 64.90Q69.39 60.41 66.86 55.82Q64.32 51.23 60.29 49.00L60.29 49.00L60.29 44.47Q65.61 44.20 68.98 41.70Q72.36 39.20 72.36 35.33L72.36 35.33Q72.36 24.20 53.81 24.20L53.81 24.20Q47.75 24.20 41.62 26.89L41.62 26.89Q34.67 29.90 31.97 34.20L31.97 34.20Q30.45 36.66 30.45 39.32L30.45 39.32Q30.45 43.73 36.78 45.96L36.78 45.96Q36.78 49.43 35.88 52.44L35.88 52.44Q31.50 51.07 27.99 48.07L27.99 48.07Q24.12 44.67 24.12 40.06Q24.12 35.45 26.89 31.50Q29.67 27.56 34.24 24.90L34.24 24.90Q44.04 19.24 57.09 19.24L57.09 19.24Q68.73 19.24 74.86 24.51L74.86 24.51Q79.32 28.30 79.32 34.55L79.32 34.55Q79.32 37.60 77.99 39.82Q76.66 42.05 75.18 43.34L75.18 43.34Q71.82 46.31 65.64 46.39L65.64 46.39Q73.14 50.21 76.84 55.41Q80.53 60.61 80.53 65.02Q80.53 69.43 79.00 72.34Q77.48 75.25 74.86 77.05L74.86 77.05Q69.55 80.76 62.62 80.76Q55.68 80.76 51.72 78.71Q47.75 76.66 45.25 72.44L45.25 72.44Q41.58 77.17 38.16 78.96Q34.75 80.76 30.68 80.76L30.68 80.76Q26.82 80.76 23.30 78.61L23.30 78.61Q21.62 77.60 20.55 75.80Q19.47 74.00 19.47 71.82L19.47 71.82Q19.47 66.70 27.17 66.70Z"></path></svg>