<?xml version="1.0"?>
<!-- Generated by SVGo -->
<svg width="320" height="420"
     mask='url(#shieldmask)'
     xmlns="http://www.w3.org/2000/svg"
     xmlns:xlink="http://www.w3.org/1999/xlink">
<defs>
<mask id="shieldmask" x="0" y="0" width="320" height="420" ><path d="m10.273 21.598v151.22c0 96.872 89.031 194.34 146.44 240.09 57.414-45.758 146.44-143.22 146.44-240.09v-151.22h-292.89z" style="fill:#FFFFFF" />
</mask>
</defs>
<g >
<rect x="0" y="0" width="320" height="420" style="fill:#EE0000" />
<rect x="160" y="0" width="160" height="420" style="fill:#0000FF" />
<path d="m10.273 21.598v151.22c0 96.872 89.031 194.34 146.44 240.09 57.414-45.758 146.44-143.22 146.44-240.09v-151.22h-292.89z" style="stroke:#FFEC00;stroke-width:100;fill:none" />
<path d="m10.273 21.598v151.22c0 96.872 89.031 194.34 146.44 240.09 57.414-45.758 146.44-143.22 146.44-240.09v-151.22h-292.89z" style="stroke:#000000;stroke-width:4;fill:none" />
</g>
</svg>
